<svg xmlns="http://www.w3.org/2000/svg" xmlns:xlink="http://www.w3.org/1999/xlink" width="503" height="686" viewBox="0 0 503 686">
  <defs>
    <clipPath id="clip-_404">
      <rect width="503" height="686"/>
    </clipPath>
  </defs>
  <g id="_404" data-name="404" clip-path="url(#clip-_404)">
    <g id="Grupo_220" data-name="Grupo 220" transform="translate(-1212 -287)">
      <g id="Componente_16_5" data-name="Componente 16 – 5" transform="translate(1101.557 287)">
        <g id="Grupo_19" data-name="Grupo 19" transform="translate(0 0)">
          <g id="Polígono_14" data-name="Polígono 14" transform="translate(0 207.846) rotate(-30)" fill="#707070">
            <path d="M 139.4812927246094 380.5230102539062 L 57.82975387573242 240.0178680419922 L 139.4812927246094 99.51271820068359 L 221.1329040527344 240.0178680419922 L 139.4812927246094 380.5230102539062 Z" stroke="none"/>
            <path d="M 139.4812774658203 199.0253601074219 L 115.6593475341797 240.0178680419922 L 139.4812774658203 281.0103759765625 L 163.30322265625 240.0178680419922 L 139.4812774658203 199.0253601074219 M 139.4812774658203 3.0517578125e-05 L 278.9626159667969 240.0178680419922 L 139.4812774658203 480.0357055664062 L -6.103515625e-05 240.0178680419922 L 139.4812774658203 3.0517578125e-05 Z" stroke="none" fill="#707070"/>
          </g>
          <g id="Polígono_15" data-name="Polígono 15" transform="translate(479.975 68.365) rotate(30)" fill="#5e5e5e">
            <path d="M 139.4813079833984 380.5230407714844 L 57.82968521118164 240.0178680419922 L 139.4813079833984 99.51268768310547 L 221.1329345703125 240.0178680419922 L 139.4813079833984 380.5230407714844 Z" stroke="none"/>
            <path d="M 139.4813079833984 199.0253601074219 L 115.6593780517578 240.0178680419922 L 139.4813079833984 281.0103759765625 L 163.3032531738281 240.0178680419922 L 139.4813079833984 199.0253601074219 M 139.4813079833984 3.0517578125e-05 L 278.962646484375 240.0178680419922 L 139.4813079833984 480.0357055664062 L -3.0517578125e-05 240.0178680419922 L 139.4813079833984 3.0517578125e-05 Z" stroke="none" fill="#5e5e5e"/>
          </g>
          <g id="Polígono_16" data-name="Polígono 16" transform="translate(601.042 0) rotate(90)" fill="#dcdbdb">
            <path d="M 139.4812927246094 380.5230102539062 L 57.82975387573242 240.0178680419922 L 139.4812927246094 99.51271820068359 L 221.1329040527344 240.0178680419922 L 139.4812927246094 380.5230102539062 Z" stroke="none"/>
            <path d="M 139.4812774658203 199.0253601074219 L 115.6593475341797 240.0178680419922 L 139.4812774658203 281.0103759765625 L 163.30322265625 240.0178680419922 L 139.4812774658203 199.0253601074219 M 139.4812774658203 3.0517578125e-05 L 278.9626159667969 240.0178680419922 L 139.4812774658203 480.0357055664062 L -6.103515625e-05 240.0178680419922 L 139.4812774658203 3.0517578125e-05 Z" stroke="none" fill="#8f8c8c"/>
          </g>
        </g>
        <g id="Grupo_20" data-name="Grupo 20" transform="translate(139.693 67.307)">
          <path id="Polígono_14-2" data-name="Polígono 14" d="M85.47,0l85.47,147.076L85.47,294.151,0,147.076Z" transform="translate(442.152 254.742) rotate(150)" fill="#707070"/>
          <path id="Polígono_15-2" data-name="Polígono 15" d="M85.47,0l85.47,147.076L85.47,294.151,0,147.076Z" transform="translate(148.038 340.212) rotate(-150)" fill="#5e5e5e"/>
          <path id="Polígono_16-2" data-name="Polígono 16" d="M85.47,0l85.47,147.076L85.47,294.151,0,147.076Z" transform="translate(73.852 382.104) rotate(-90)" fill="#8f8c8c"/>
        </g>
      </g>
    </g>
    <text id="WithOutItems" transform="translate(14.5 630.5)" fill="#8f8c8c" font-size="77" font-family="SegoeUI, Segoe UI"><tspan x="0" y="0">With</tspan><tspan y="0" fill="#ff7c37">Out</tspan><tspan y="0" fill="#5e5e5e">Items</tspan></text>
  </g>
</svg>
