<svg xmlns="http://www.w3.org/2000/svg" xmlns:xlink="http://www.w3.org/1999/xlink" width="233" height="204" viewBox="0 0 233 204">
  <defs>
    <clipPath id="clip-Mesa_de_trabajo_2">
      <rect width="233" height="204"/>
    </clipPath>
  </defs>
  <g id="Mesa_de_trabajo_2" data-name="Mesa de trabajo – 2" clip-path="url(#clip-Mesa_de_trabajo_2)">
    <path id="Icon_awesome-image" data-name="Icon awesome-image" d="M192.581,186.5H19.922C8.919,186.5,0,176.315,0,163.75V27.25C0,14.685,8.919,4.5,19.922,4.5H192.581c11,0,19.922,10.185,19.922,22.75v136.5C212.5,176.315,203.584,186.5,192.581,186.5ZM46.485,31.042c-12.837,0-23.243,11.883-23.243,26.542S33.649,84.125,46.485,84.125,69.728,72.242,69.728,57.583,59.322,31.042,46.485,31.042ZM26.563,156.167H185.941V103.083L149.618,61.6a4.556,4.556,0,0,0-7.044,0L86.33,125.833,63.288,99.522a4.556,4.556,0,0,0-7.044,0l-29.682,33.9Z" transform="translate(0 17.5)" fill="#545454"/>
    <g id="Icon_feather-plus" data-name="Icon feather-plus" transform="translate(174.174 -2.5)">
      <path id="Trazado_66" data-name="Trazado 66" d="M18,7.5V53.158" transform="translate(12.329 0)" fill="none" stroke="#1c1d20" stroke-linecap="round" stroke-linejoin="round" stroke-width="10"/>
      <path id="Trazado_67" data-name="Trazado 67" d="M7.5,18H53.158" transform="translate(0 12.329)" fill="none" stroke="#1c1d20" stroke-linecap="round" stroke-linejoin="round" stroke-width="10"/>
    </g>
  </g>
</svg>
