<svg xmlns="http://www.w3.org/2000/svg" xmlns:xlink="http://www.w3.org/1999/xlink" width="81" height="65" viewBox="0 0 81 65">
  <defs>
    <clipPath id="clip-Clases">
      <rect width="81" height="65"/>
    </clipPath>
  </defs>
  <g id="Clases" clip-path="url(#clip-Clases)">
    <path id="Icon_awesome-chalkboard-teacher" data-name="Icon awesome-chalkboard-teacher" d="M26.286,44.484a2.891,2.891,0,0,0-.892.138,16.671,16.671,0,0,1-5.174.873,16.685,16.685,0,0,1-5.175-.873,2.883,2.883,0,0,0-.891-.138A14.155,14.155,0,0,0,0,58.716,6.05,6.05,0,0,0,6.066,64.7H34.374a6.05,6.05,0,0,0,6.066-5.988A14.155,14.155,0,0,0,26.286,44.484ZM20.22,40.44A12.132,12.132,0,1,0,8.088,28.308,12.132,12.132,0,0,0,20.22,40.44ZM74.814,0H26.286A6.176,6.176,0,0,0,20.22,6.267v5.865a15.992,15.992,0,0,1,8.088,2.249V8.088H72.792v36.4H64.7V36.4H48.528v8.088H38.893a16.106,16.106,0,0,1,5.016,8.088h30.9A6.176,6.176,0,0,0,80.879,46.3V6.267A6.176,6.176,0,0,0,74.814,0Z" fill="#eee"/>
    <path id="Icon_awesome-chalkboard-teacher-2" data-name="Icon awesome-chalkboard-teacher" d="M26.286,44.484a2.891,2.891,0,0,0-.892.138,16.671,16.671,0,0,1-5.174.873,16.685,16.685,0,0,1-5.175-.873,2.883,2.883,0,0,0-.891-.138A14.155,14.155,0,0,0,0,58.716,6.05,6.05,0,0,0,6.066,64.7H34.374a6.05,6.05,0,0,0,6.066-5.988A14.155,14.155,0,0,0,26.286,44.484ZM20.22,40.44A12.132,12.132,0,1,0,8.088,28.308,12.132,12.132,0,0,0,20.22,40.44ZM74.814,0H26.286A6.176,6.176,0,0,0,20.22,6.267v5.865a15.992,15.992,0,0,1,8.088,2.249V8.088H72.792v36.4H64.7V36.4H48.528v8.088H38.893a16.106,16.106,0,0,1,5.016,8.088h30.9A6.176,6.176,0,0,0,80.879,46.3V6.267A6.176,6.176,0,0,0,74.814,0Z" fill="#eee"/>
    <path id="Icon_awesome-chalkboard-teacher-3" data-name="Icon awesome-chalkboard-teacher" d="M26.286,44.484a2.891,2.891,0,0,0-.892.138,16.671,16.671,0,0,1-5.174.873,16.685,16.685,0,0,1-5.175-.873,2.883,2.883,0,0,0-.891-.138A14.155,14.155,0,0,0,0,58.716,6.05,6.05,0,0,0,6.066,64.7H34.374a6.05,6.05,0,0,0,6.066-5.988A14.155,14.155,0,0,0,26.286,44.484ZM20.22,40.44A12.132,12.132,0,1,0,8.088,28.308,12.132,12.132,0,0,0,20.22,40.44ZM74.814,0H26.286A6.176,6.176,0,0,0,20.22,6.267v5.865a15.992,15.992,0,0,1,8.088,2.249V8.088H72.792v36.4H64.7V36.4H48.528v8.088H38.893a16.106,16.106,0,0,1,5.016,8.088h30.9A6.176,6.176,0,0,0,80.879,46.3V6.267A6.176,6.176,0,0,0,74.814,0Z" fill="#eee"/>
    <path id="Icon_awesome-chalkboard-teacher-4" data-name="Icon awesome-chalkboard-teacher" d="M26.286,44.484a2.891,2.891,0,0,0-.892.138,16.671,16.671,0,0,1-5.174.873,16.685,16.685,0,0,1-5.175-.873,2.883,2.883,0,0,0-.891-.138A14.155,14.155,0,0,0,0,58.716,6.05,6.05,0,0,0,6.066,64.7H34.374a6.05,6.05,0,0,0,6.066-5.988A14.155,14.155,0,0,0,26.286,44.484ZM20.22,40.44A12.132,12.132,0,1,0,8.088,28.308,12.132,12.132,0,0,0,20.22,40.44ZM74.814,0H26.286A6.176,6.176,0,0,0,20.22,6.267v5.865a15.992,15.992,0,0,1,8.088,2.249V8.088H72.792v36.4H64.7V36.4H48.528v8.088H38.893a16.106,16.106,0,0,1,5.016,8.088h30.9A6.176,6.176,0,0,0,80.879,46.3V6.267A6.176,6.176,0,0,0,74.814,0Z" fill="#eee"/>
  </g>
</svg>
