<svg xmlns="http://www.w3.org/2000/svg" xmlns:xlink="http://www.w3.org/1999/xlink" width="81" height="61" viewBox="0 0 81 61">
  <defs>
    <clipPath id="clip-Empleados">
      <rect width="81" height="61"/>
    </clipPath>
  </defs>
  <g id="Empleados" clip-path="url(#clip-Empleados)">
    <g id="helmet" transform="translate(0 -64)">
      <g id="Group_184" data-name="Group 184" transform="translate(0 64)">
        <path id="Path_78" data-name="Path 78" d="M74.139,101.855v-.785A33.655,33.655,0,0,0,59.475,73.3a1.683,1.683,0,0,0-2.63,1.251L55.585,89.7a1.723,1.723,0,0,1-1.807,1.539h-.01a1.683,1.683,0,0,1-1.54-1.82l1.685-20.22a1.684,1.684,0,0,0-1.678-1.825H46.242a6.68,6.68,0,0,0-11.6,0H28.645a1.684,1.684,0,0,0-1.678,1.825l1.685,20.22a1.685,1.685,0,0,1-.392,1.229,1.759,1.759,0,0,1-1.29.6,1.691,1.691,0,0,1-1.675-1.545l-1.26-15.14A1.683,1.683,0,0,0,21.4,73.3,33.65,33.65,0,0,0,6.74,101.07v.785C2.208,103.474,0,105.429,0,107.81c0,6.348,18.9,16.85,40.44,16.85s40.44-10.5,40.44-16.85C80.879,105.429,78.671,103.474,74.139,101.855ZM43.81,94.33a3.373,3.373,0,0,1-3.37,3.37,3.408,3.408,0,0,1-3.37-3.466V70.74a3.37,3.37,0,0,1,6.74,0Z" transform="translate(0 -64)" fill="#eee"/>
      </g>
    </g>
  </g>
</svg>
