<svg xmlns="http://www.w3.org/2000/svg" xmlns:xlink="http://www.w3.org/1999/xlink" width="67" height="67" viewBox="0 0 67 67">
  <defs>
    <clipPath id="clip-Herramientas">
      <rect width="67" height="67"/>
    </clipPath>
  </defs>
  <g id="Herramientas" clip-path="url(#clip-Herramientas)">
    <g id="_016-wrench" data-name="016-wrench" transform="translate(0 0)">
      <path id="Path_35" data-name="Path 35" d="M72.918,393.418a3.187,3.187,0,1,0,2.256.933A3.177,3.177,0,0,0,72.918,393.418Zm0,0" transform="translate(-60.469 -342.251)" fill="#eee"/>
      <path id="Path_36" data-name="Path 36" d="M62.314,10.613l-2.976,2.975a4.089,4.089,0,0,1-1.509.942,4.167,4.167,0,0,1-5.646-3.906,4.138,4.138,0,0,1,.285-1.454,4.183,4.183,0,0,1,.947-1.509l2.975-2.975A2.744,2.744,0,0,0,54.484,0h-.06A12.539,12.539,0,0,0,41.93,11.728l-.083.846v.046a12.055,12.055,0,0,1-3.492,8.6l-17.2,17.192a11.921,11.921,0,0,1-8.521,3.493A12.546,12.546,0,1,0,25.082,54.3a11.81,11.81,0,0,1,3.5-8.477L45.764,28.64a12.079,12.079,0,0,1,8.613-3.493h.048l.846-.085A12.538,12.538,0,0,0,67,12.574v-.058a2.744,2.744,0,0,0-4.687-1.9ZM17.521,59.874a7.359,7.359,0,1,1,2.156-5.2,7.338,7.338,0,0,1-2.156,5.2Zm0,0" transform="translate(-0.001 0)" fill="#eee"/>
    </g>
  </g>
</svg>
