<svg xmlns="http://www.w3.org/2000/svg" xmlns:xlink="http://www.w3.org/1999/xlink" width="67" height="62" viewBox="0 0 67 62">
  <defs>
    <clipPath id="clip-Maquinaria">
      <rect width="67" height="62"/>
    </clipPath>
  </defs>
  <g id="Maquinaria" clip-path="url(#clip-Maquinaria)">
    <g id="_050-robotic_arm" data-name="050-robotic arm" transform="translate(0.167 0.082)">
      <path id="Path_37" data-name="Path 37" d="M62.58,234.111H24.215v-30.63H7.751v30.63H5.356A4.858,4.858,0,0,0,.5,238.971v.022a4.858,4.858,0,0,0,4.856,4.86H62.58a4.858,4.858,0,0,0,4.856-4.86v-.022a4.858,4.858,0,0,0-4.856-4.86Zm0,0" transform="translate(-0.501 -181.673)" fill="#eee"/>
      <path id="Path_38" data-name="Path 38" d="M77.237,77.447a1.653,1.653,0,1,0-1.651-1.653A1.654,1.654,0,0,0,77.237,77.447Zm0,0" transform="translate(-65.695 -64.439)" fill="#eee"/>
      <path id="Path_39" data-name="Path 39" d="M11.339,22.7h34.6l-.009,8.972a6.792,6.792,0,0,0-4.807,6.48l0,3.5a1.962,1.962,0,0,0,1.959,1.965h0a1.962,1.962,0,0,0,1.961-1.961l0-3.5a2.855,2.855,0,0,1,2.846-2.849h0a2.828,2.828,0,0,1,2.829,2.835l0,3.5A1.962,1.962,0,0,0,52.68,43.6h0a1.962,1.962,0,0,0,1.961-1.961l0-3.5a6.763,6.763,0,0,0-4.793-6.478l.01-8.967H61.548a5.394,5.394,0,0,0,5.386-5.391V12.176A3.959,3.959,0,0,0,65.8,9.4L57.849,1.232A4.1,4.1,0,0,0,54.929,0H11.339a11.351,11.351,0,0,0,0,22.7Zm.2-16.925a5.579,5.579,0,1,1-5.573,5.58,5.582,5.582,0,0,1,5.573-5.58Zm0,0" transform="translate(-0.001 0.001)" fill="#eee"/>
    </g>
  </g>
</svg>
