<svg xmlns="http://www.w3.org/2000/svg" xmlns:xlink="http://www.w3.org/1999/xlink" width="67" height="67" viewBox="0 0 67 67">
  <defs>
    <clipPath id="clip-Materiales">
      <rect width="67" height="67"/>
    </clipPath>
  </defs>
  <g id="Materiales" clip-path="url(#clip-Materiales)">
    <g id="Component_21_3" data-name="Component 21 – 3" transform="translate(-1.264 1.886)">
      <path id="Polygon_19" data-name="Polygon 19" d="M31.808,1.8a4.528,4.528,0,0,1,1.307-.561,5.99,5.99,0,0,1,2.969,0,4.53,4.53,0,0,1,1.307.561L65.162,19.737a3.109,3.109,0,0,1,.93.892,2.02,2.02,0,0,1,.343,1.017,1.89,1.89,0,0,1-.252,1.02,2.746,2.746,0,0,1-.854.9L37.566,42.67a4.631,4.631,0,0,1-1.382.631,6,6,0,0,1-3.151,0,4.633,4.633,0,0,1-1.383-.631L3.879,23.565a2.747,2.747,0,0,1-.855-.9,1.891,1.891,0,0,1-.252-1.02,2.019,2.019,0,0,1,.343-1.017,3.107,3.107,0,0,1,.93-.892Z" transform="translate(0.311 20.085)" fill="#eee"/>
      <path id="Polygon_21" data-name="Polygon 21" d="M31.5,1.77a4.509,4.509,0,0,1,1.3-.551,5.989,5.989,0,0,1,2.941,0,4.51,4.51,0,0,1,1.3.551l27.5,17.6a3.064,3.064,0,0,1,.921.875,1.968,1.968,0,0,1,.339,1,1.841,1.841,0,0,1-.25,1,2.706,2.706,0,0,1-.847.882L37.2,41.858a4.608,4.608,0,0,1-1.369.619,6,6,0,0,1-3.12,0,4.608,4.608,0,0,1-1.369-.619L3.835,23.122a2.707,2.707,0,0,1-.847-.882,1.841,1.841,0,0,1-.25-1,1.968,1.968,0,0,1,.339-1A3.063,3.063,0,0,1,4,19.367Z" transform="translate(0.551 13.734)" fill="#1c1d20"/>
      <path id="Polygon_18" data-name="Polygon 18" d="M31.329,1.752a4.5,4.5,0,0,1,1.289-.545,5.988,5.988,0,0,1,2.926,0,4.5,4.5,0,0,1,1.289.545L64.189,19.167a3.04,3.04,0,0,1,.915.866,1.94,1.94,0,0,1,.337.987,1.814,1.814,0,0,1-.249.99,2.685,2.685,0,0,1-.843.873L36.994,41.419a4.6,4.6,0,0,1-1.361.612,6,6,0,0,1-3.1,0,4.6,4.6,0,0,1-1.361-.612L3.811,22.883a2.685,2.685,0,0,1-.843-.873,1.814,1.814,0,0,1-.249-.99,1.94,1.94,0,0,1,.337-.987,3.04,3.04,0,0,1,.915-.866Z" transform="translate(0.686 10.273)" fill="#eee"/>
      <path id="Polygon_20" data-name="Polygon 20" d="M30.994,1.716a4.478,4.478,0,0,1,1.275-.534,5.986,5.986,0,0,1,2.9,0,4.476,4.476,0,0,1,1.275.534L63.509,18.774a2.992,2.992,0,0,1,.905.848,1.885,1.885,0,0,1,.333.967,1.762,1.762,0,0,1-.247.969,2.644,2.644,0,0,1-.834.854L36.594,40.555a4.571,4.571,0,0,1-1.347.6,5.994,5.994,0,0,1-3.07,0,4.569,4.569,0,0,1-1.347-.6L3.763,22.412a2.643,2.643,0,0,1-.834-.854,1.762,1.762,0,0,1-.247-.969,1.886,1.886,0,0,1,.333-.967,2.993,2.993,0,0,1,.906-.848Z" transform="translate(0.953 3.407)" fill="#1c1d20"/>
      <path id="Polygon_17" data-name="Polygon 17" d="M30.828,1.7A4.467,4.467,0,0,1,32.1,1.17a5.985,5.985,0,0,1,2.882,0,4.465,4.465,0,0,1,1.269.529L63.172,18.58a2.968,2.968,0,0,1,.9.839,1.858,1.858,0,0,1,.331.957,1.737,1.737,0,0,1-.246.959,2.623,2.623,0,0,1-.83.845L36.4,40.13a4.559,4.559,0,0,1-1.34.592,5.992,5.992,0,0,1-3.053,0,4.556,4.556,0,0,1-1.339-.592L3.74,22.18a2.622,2.622,0,0,1-.83-.845,1.736,1.736,0,0,1-.245-.959A1.859,1.859,0,0,1,3,19.419a2.97,2.97,0,0,1,.9-.839Z" transform="translate(1.084)" fill="#eee"/>
    </g>
  </g>
</svg>
