<svg xmlns="http://www.w3.org/2000/svg" xmlns:xlink="http://www.w3.org/1999/xlink" width="66" height="79" viewBox="0 0 66 79">
  <defs>
    <clipPath id="clip-Paniol">
      <rect width="66" height="79"/>
    </clipPath>
  </defs>
  <g id="Paniol" clip-path="url(#clip-Paniol)">
    <g id="lista-en-un-portapapeles" transform="translate(-48.673 -5452.756)">
      <path id="Path_57" data-name="Path 57" d="M81.721,9.219H79.884A6.332,6.332,0,0,0,73.669,4.99H64.924a11.549,11.549,0,0,0-19.012,0H37.168a6.333,6.333,0,0,0-6.217,4.229H29.115c-3.556,0-6.442,2.527-6.442,5.637V72.172c0,3.113,2.886,5.638,6.442,5.638H81.721c3.555,0,6.442-2.524,6.442-5.638V14.856C88.163,11.739,85.282,9.219,81.721,9.219Zm-26.3-3.761a4.371,4.371,0,0,1,4.63,4.055,4.673,4.673,0,0,1-9.262,0A4.376,4.376,0,0,1,55.419,5.458ZM36.7,59.485a2.844,2.844,0,1,1,0-5.637,2.844,2.844,0,1,1,0,5.637Zm0-14.094a2.844,2.844,0,1,1,0-5.637,2.844,2.844,0,1,1,0,5.637Zm0-14.094a3.038,3.038,0,0,1-3.221-2.819A3.037,3.037,0,0,1,36.7,25.66a3.035,3.035,0,0,1,3.221,2.819A3.04,3.04,0,0,1,36.7,31.3ZM75.571,59.485H47.285a2.844,2.844,0,1,1,0-5.637H75.571a2.844,2.844,0,1,1,0,5.637Zm0-14.094H47.285a2.844,2.844,0,1,1,0-5.637H75.571a2.844,2.844,0,1,1,0,5.637Zm0-14.094H47.285a3.036,3.036,0,0,1-3.221-2.819,3.035,3.035,0,0,1,3.221-2.819H75.571a3.036,3.036,0,0,1,3.221,2.819A3.037,3.037,0,0,1,75.571,31.3Z" transform="translate(26 5452.756)" fill="#eee"/>
    </g>
  </g>
</svg>
